<svg xmlns="http://www.w3.org/2000/svg" viewBox="0 0 900 1200"><defs><linearGradient id="g"><stop stop-color="#030303"/><stop offset=".78" stop-color="#070707"/><stop offset="1" stop-color="#ef2b20" stop-opacity=".08"/></linearGradient><radialGradient id="h"><stop stop-color="#b7ff00" stop-opacity=".12"/><stop offset="1" stop-color="#b7ff00" stop-opacity="0"/></radialGradient></defs><rect width="100%" height="100%" fill="url(#g)"/><ellipse cx="450" cy="825" rx="330" ry="310" fill="url(#h)"/><path d="M65 120C250 70 425 120 570 84" stroke="#b7ff00" stroke-width="3" opacity=".24" fill="none"/><text x="56" y="260" fill="#f4f4f1" font-family="Arial Black,Impact,sans-serif" font-size="104" font-weight="900" letter-spacing="-3">DIA DO AMIGO</text><g transform="translate(450 825) scale(2.8)" fill="none" stroke-linecap="round" stroke-linejoin="round"><path stroke="#f4f4f1" stroke-width="4" d="M-88 5C-88-31-59-60-23-60H30C66-60 95-31 95 5S66 70 30 70H1"/><path stroke="#b7ff00" stroke-width="4" d="M-5-12H-35C-71-12-100 17-100 53S-71 118-35 118H18C54 118 83 89 83 53"/></g><circle cx="118" cy="560" r="5" fill="#b7ff00" opacity=".45"/></svg>